<svg width="28" height="21" viewBox="0 0 28 21" fill="none" xmlns="http://www.w3.org/2000/svg">
<rect y="0.5" width="28" height="20" rx="2" fill="white"/>
<mask id="mask0_85_701" style="mask-type:luminance" maskUnits="userSpaceOnUse" x="0" y="0" width="28" height="21">
<rect y="0.5" width="28" height="20" rx="2" fill="white"/>
</mask>
<g mask="url(#mask0_85_701)">
<path fill-rule="evenodd" clip-rule="evenodd" d="M0 7.16667H28V0.5H0V7.16667Z" fill="#24AAD5"/>
<path fill-rule="evenodd" clip-rule="evenodd" d="M0 20.5H28V13.8333H0V20.5Z" fill="#21BF75"/>
<path fill-rule="evenodd" clip-rule="evenodd" d="M0 13.8334H28V7.16669H0V13.8334Z" fill="#ED1845"/>
<g filter="url(#filter0_d_85_701)">
<path fill-rule="evenodd" clip-rule="evenodd" d="M14 12.5C14.4113 12.5 14.7936 12.3759 15.1114 12.163C15.0746 12.1654 15.0374 12.1667 15 12.1667C14.0795 12.1667 13.3333 11.4205 13.3333 10.5C13.3333 9.57953 14.0795 8.83333 15 8.83333C15.0374 8.83333 15.0746 8.83457 15.1114 8.837C14.7936 8.62414 14.4113 8.5 14 8.5C12.8954 8.5 12 9.39543 12 10.5C12 11.6046 12.8954 12.5 14 12.5ZM16 10.5C16 10.8682 15.7015 11.1667 15.3333 11.1667C14.9651 11.1667 14.6667 10.8682 14.6667 10.5C14.6667 10.1318 14.9651 9.83333 15.3333 9.83333C15.7015 9.83333 16 10.1318 16 10.5Z" fill="white"/>
</g>
</g>
<defs>
<filter id="filter0_d_85_701" x="12" y="8.5" width="4" height="5" filterUnits="userSpaceOnUse" color-interpolation-filters="sRGB">
<feFlood flood-opacity="0" result="BackgroundImageFix"/>
<feColorMatrix in="SourceAlpha" type="matrix" values="0 0 0 0 0 0 0 0 0 0 0 0 0 0 0 0 0 0 127 0" result="hardAlpha"/>
<feOffset dy="1"/>
<feColorMatrix type="matrix" values="0 0 0 0 0 0 0 0 0 0 0 0 0 0 0 0 0 0 0.06 0"/>
<feBlend mode="normal" in2="BackgroundImageFix" result="effect1_dropShadow_85_701"/>
<feBlend mode="normal" in="SourceGraphic" in2="effect1_dropShadow_85_701" result="shape"/>
</filter>
</defs>
</svg>
