<svg width="140" height="64" viewBox="0 0 140 64" fill="none" xmlns="http://www.w3.org/2000/svg">
<path fill-rule="evenodd" clip-rule="evenodd" d="M57.7119 26.0717L58.4385 46.9865H51.1724V19.7063H62.6831L67.8842 36.8383H68.1385L73.0795 19.7063H84.887V46.9865H77.6208L78.3474 26.0717H78.0931L71.1903 46.9865H64.9052L57.9298 26.0717H57.7119ZM105.298 42.2943H95.5257L94.1874 46.9865H86.6308L94.7989 19.7063H105.849L114.133 46.9865H106.721L105.298 42.2943ZM103.845 36.9837L100.466 25.1564H100.394L97.0877 36.9837H103.845ZM140 19.7063L130.039 37.4204V46.9865H122.773V37.4204L113.103 19.7063H121.423L126.297 30.2183H126.552L131.565 19.7063H140Z" fill="white"/>
<path fill-rule="evenodd" clip-rule="evenodd" d="M31.767 24.4775C33.6641 25.1567 36.8328 27.969 37.8859 29.2855C48.4853 42.5347 40.1578 60.2201 25.6572 62.2872C18.908 63.2491 12.7838 60.3818 9.75111 56.9696C5.75886 52.4776 4.80798 47.222 7.63408 40.4873C9.75057 35.4434 13.4595 31.8683 17.2186 28.2995C19.1101 26.5037 21.0299 24.7837 22.7876 22.936C24.4965 21.1393 26.1813 19.116 27.2575 16.4669C29.3404 11.3392 27.4332 5.9235 24.6486 1.57588L23.8584 0.349483C23.7024 0.133402 23.6966 0.132669 23.5514 0C22.0192 5.28013 17.3406 10.1285 14.3546 13.5279C10.8675 17.4976 7.26244 21.1966 4.16254 26.0657C0.986643 31.0542 -1.07493 36.4484 0.592532 44.0315C3.01907 55.0673 14.2258 65.3221 26.4546 62.9968C39.0941 60.5937 46.3312 47.7111 42.3568 35.66C40.9617 31.4297 38.5285 28.2802 35.298 25.7195C34.5663 25.1392 32.7788 23.8914 31.7845 23.5927L31.767 24.4775Z" fill="white"/>
<path fill-rule="evenodd" clip-rule="evenodd" d="M31.6695 25.4313C33.355 26.1689 35.722 28.1993 36.7594 29.3513C41.7171 34.8562 43.3215 42.8804 40.3294 50.0027C38.5619 54.2098 35.501 57.4916 31.7526 59.4885C19.8094 65.8513 8.97046 57.6254 11.8062 48.7712C12.5874 46.3322 13.9318 44.8054 15.2874 43.2199C17.3533 40.8035 22.2971 37.0392 24.7579 34.6469C28.021 31.4745 31.0528 27.9279 31.018 22.8276C30.9979 19.8598 30.0742 17.7578 29.208 15.5886C28.9246 16.0214 28.8591 16.8282 28.6569 17.3951C27.8307 19.7126 26.0132 21.9647 24.4334 23.8235L21.507 26.8C19.9328 28.3783 18.3235 29.9256 16.7502 31.4976L14.4605 33.9349C10.7459 37.7365 6.62516 44.0055 7.99226 50.7364C8.72701 54.3543 10.1645 56.2413 12.2743 58.2999C17.4024 63.3041 25.9849 63.353 31.8296 60.2105C43.5572 53.9048 46.0348 38.4762 37.0947 28.7907C35.9555 27.5565 33.3233 25.2878 31.7581 24.7691L31.6695 25.4313Z" fill="white"/>
<path fill-rule="evenodd" clip-rule="evenodd" d="M54.6291 61.6008V52.1409H51.1724V50.8835H59.4772V52.1409H56.0205V61.6008H54.6291ZM68.6043 61.6008V50.8835H73.2521C74.1871 50.8835 74.8974 50.981 75.3832 51.1729C75.8691 51.3651 76.2571 51.7043 76.5476 52.1909C76.8382 52.6772 76.9821 53.2161 76.9821 53.8049C76.9821 54.5659 76.7404 55.2069 76.2595 55.7283C75.7786 56.2498 75.0367 56.5789 74.0309 56.7213C74.3995 56.9009 74.6777 57.0805 74.8682 57.255C75.2733 57.6342 75.6566 58.1106 76.0154 58.682L77.8293 61.6008H76.096L74.7095 59.3706C74.3066 58.7244 73.9722 58.233 73.711 57.8912C73.4474 57.5493 73.2131 57.3124 73.0055 57.1752C72.8005 57.0405 72.5881 56.9458 72.3733 56.8908C72.2171 56.8584 71.9609 56.841 71.6019 56.841H69.9956V61.6008H68.6043ZM69.9956 55.6135H72.9739C73.6086 55.6135 74.1016 55.5462 74.458 55.4114C74.8145 55.2792 75.0854 55.0647 75.2684 54.7679C75.4541 54.4734 75.5468 54.1541 75.5468 53.8074C75.5468 53.3009 75.3687 52.8818 75.0097 52.5551C74.6509 52.2282 74.0845 52.0661 73.3107 52.0661H69.9956V55.6135ZM85.6676 61.6008L89.6905 50.8835H91.2163L95.4858 61.6008H93.9064L92.6931 58.3527H88.2772L87.1396 61.6008H85.6676ZM88.6848 57.2002H92.2586L91.1649 54.2291C90.8354 53.3259 90.5864 52.58 90.4131 51.9913C90.2692 52.6898 90.0763 53.3757 89.8346 54.0544L88.6848 57.2002ZM104.252 61.6008V50.8835H107.865C108.68 50.8835 109.302 50.9336 109.732 51.0358C110.333 51.178 110.845 51.4349 111.27 51.8041C111.824 52.2832 112.237 52.8919 112.51 53.6352C112.786 54.3786 112.923 55.2293 112.923 56.1849C112.923 56.9981 112.83 57.7191 112.644 58.3477C112.459 58.9764 112.219 59.4977 111.929 59.9095C111.636 60.321 111.319 60.6453 110.972 60.8798C110.628 61.1168 110.211 61.2964 109.722 61.4187C109.232 61.5409 108.67 61.6008 108.035 61.6008H104.252ZM105.643 60.3435H107.879C108.57 60.3435 109.112 60.2786 109.505 60.1463C109.898 60.0141 110.211 59.8296 110.445 59.59C110.772 59.2532 111.028 58.7992 111.211 58.2305C111.395 57.6616 111.487 56.9732 111.487 56.1624C111.487 55.0398 111.307 54.1766 110.948 53.5729C110.589 52.9691 110.152 52.565 109.637 52.3605C109.266 52.2133 108.668 52.1409 107.843 52.1409H105.643V60.3435ZM122.523 61.6008V50.8835H130.096V52.1409H123.915V55.4339H129.7V56.6912H123.915V60.3435H130.345V61.6008H122.523Z" fill="white"/>
<path fill-rule="evenodd" clip-rule="evenodd" d="M35.0732 30C35.1456 30.4108 39.0077 36.1731 36.944 43.1845C35.6371 47.6248 32.7477 50.5574 27.7933 50.4165C22.372 50.2623 20.9195 44.5031 15.9427 46.9071C12.0185 48.8025 12.2158 54.4684 15.3696 57.9723C18.0743 60.9768 22.9749 61.7922 28.0169 60.2075C31.0872 59.2425 33.6163 57.7975 35.7587 55.7087L37.6746 53.4821C39.9605 50.1992 41.5687 46.008 40.81 40.5473C40.1873 36.0666 37.5615 32.0524 35.0732 30Z" fill="white"/>
</svg>
