<svg width="28" height="21" viewBox="0 0 28 21" fill="none" xmlns="http://www.w3.org/2000/svg">
<rect x="0.25" y="0.75" width="27.5" height="19.5" rx="1.75" fill="white" stroke="#F5F5F5" stroke-width="0.5"/>
<mask id="mask0_85_1001" style="mask-type:luminance" maskUnits="userSpaceOnUse" x="0" y="0" width="28" height="21">
<rect x="0.25" y="0.75" width="27.5" height="19.5" rx="1.75" fill="white" stroke="white" stroke-width="0.5"/>
</mask>
<g mask="url(#mask0_85_1001)">
<path fill-rule="evenodd" clip-rule="evenodd" d="M16.0003 21.8334H12.0003V12.5H-1.33301V8.50002H12.0003V-0.833313H16.0003V8.50002H29.3337V12.5H16.0003V21.8334Z" fill="#FF2B37"/>
<path fill-rule="evenodd" clip-rule="evenodd" d="M21.6 4.9L20 5.16667V3.83333L21.6 4.1L21.3333 2.5H22.6667L22.4 4.1L24 3.83333V5.16667L22.4 4.9L22.6667 6.5H21.3333L21.6 4.9Z" fill="#FD0D1B"/>
<path fill-rule="evenodd" clip-rule="evenodd" d="M5.6 4.9L4 5.16667V3.83333L5.6 4.1L5.33333 2.5H6.66667L6.4 4.1L8 3.83333V5.16667L6.4 4.9L6.66667 6.5H5.33333L5.6 4.9Z" fill="#FD0D1B"/>
<path fill-rule="evenodd" clip-rule="evenodd" d="M5.6 16.9L4 17.1667V15.8333L5.6 16.1L5.33333 14.5H6.66667L6.4 16.1L8 15.8333V17.1667L6.4 16.9L6.66667 18.5H5.33333L5.6 16.9Z" fill="#FD0D1B"/>
<path fill-rule="evenodd" clip-rule="evenodd" d="M21.6 16.9L20 17.1667V15.8333L21.6 16.1L21.3333 14.5H22.6667L22.4 16.1L24 15.8333V17.1667L22.4 16.9L22.6667 18.5H21.3333L21.6 16.9Z" fill="#FD0D1B"/>
</g>
</svg>
