<svg width="149" height="64" viewBox="0 0 149 64" fill="none" xmlns="http://www.w3.org/2000/svg">
<path fill-rule="evenodd" clip-rule="evenodd" d="M61.4115 26.0716L62.1846 46.9865H54.4528V19.7062H66.7013L72.2359 36.8383H72.5065L77.7642 19.7062H90.3285V46.9865H82.5966L83.3698 26.0716H83.0991L75.7539 46.9865H69.0659L61.6434 26.0716H61.4115ZM112.048 42.2942H101.649L100.225 46.9865H92.1841L100.876 19.7062H112.635L121.449 46.9865H113.563L112.048 42.2942ZM110.502 36.9837L106.907 25.1563H106.829L103.311 36.9837H110.502ZM148.974 19.7062L138.375 37.4203V46.9865H130.643V37.4203L120.354 19.7062H129.207L134.393 30.2182H134.664L139.999 19.7062H148.974Z" fill="#05642C"/>
<path fill-rule="evenodd" clip-rule="evenodd" d="M33.8033 24.4775C35.8221 25.1567 39.1938 27.969 40.3145 29.2855C51.5933 42.5347 42.732 60.2201 27.3019 62.2872C20.12 63.2491 13.6033 60.3818 10.3762 56.9696C6.12802 52.4776 5.11618 47.222 8.12344 40.4873C10.3756 35.4434 14.3223 31.8683 18.3224 28.2995C20.3351 26.5037 22.378 24.7837 24.2483 22.936C26.0668 21.1393 27.8596 19.116 29.0048 16.4669C31.2212 11.3392 29.1918 5.9235 26.2287 1.57588L25.3878 0.349483C25.2217 0.133402 25.2156 0.132669 25.0612 0C23.4307 5.28013 18.4522 10.1285 15.2747 13.5279C11.5642 17.4976 7.72798 21.1966 4.42937 26.0657C1.04989 31.0542 -1.14383 36.4484 0.630514 44.0315C3.2126 55.0673 15.1377 65.3221 28.1504 62.9968C41.6001 60.5937 49.3011 47.7111 45.072 35.66C43.5874 31.4297 40.9982 28.2802 37.5607 25.7195C36.7821 25.1392 34.88 23.8914 33.822 23.5927L33.8033 24.4775Z" fill="#1A4C9D"/>
<path fill-rule="evenodd" clip-rule="evenodd" d="M33.6996 25.4314C35.4932 26.169 38.0119 28.1994 39.1158 29.3514C44.3912 34.8563 46.0985 42.8805 42.9146 50.0028C41.0338 54.2098 37.7767 57.4917 33.788 59.4886C21.0792 65.8514 9.54547 57.6255 12.563 48.7712C13.3943 46.3323 14.8248 44.8055 16.2674 43.22C18.4657 40.8036 23.7264 37.0393 26.3449 34.647C29.8172 31.4746 33.0434 27.928 33.0063 22.8276C32.9849 19.8599 32.002 17.7579 31.0803 15.5887C30.7787 16.0214 30.7091 16.8283 30.4938 17.3952C29.6147 19.7127 27.6807 21.9648 25.9997 23.8236L22.8856 26.8001C21.2105 28.3784 19.4981 29.9257 17.8239 31.4977L15.3875 33.935C11.4347 37.7366 7.04983 44.0055 8.50456 50.7365C9.28641 54.3544 10.816 56.2414 13.0611 58.3C18.5179 63.3042 27.6506 63.3531 33.87 60.2106C46.3493 53.9049 48.9858 38.4763 39.4726 28.7908C38.2603 27.5566 35.4594 25.2879 33.7938 24.7692L33.6996 25.4314Z" fill="#019EE3"/>
<path fill-rule="evenodd" clip-rule="evenodd" d="M58.1311 61.6009V52.141H54.4528V50.8837H63.29V52.141H59.6117V61.6009H58.1311ZM73.0021 61.6009V50.8837H77.9478C78.9428 50.8837 79.6986 50.9811 80.2156 51.173C80.7326 51.3653 81.1455 51.7045 81.4546 52.191C81.7638 52.6773 81.917 53.2162 81.917 53.8051C81.917 54.566 81.6598 55.207 81.1481 55.7284C80.6363 56.2499 79.8468 56.5791 78.7765 56.7214C79.1688 56.901 79.4648 57.0806 79.6675 57.2551C80.0987 57.6343 80.5065 58.1107 80.8883 58.6821L82.8185 61.6009H80.9741L79.4987 59.3707C79.07 58.7246 78.7141 58.2331 78.4362 57.8913C78.1556 57.5494 77.9064 57.3126 77.6855 57.1754C77.4673 57.0406 77.2413 56.9459 77.0127 56.8909C76.8465 56.8585 76.5738 56.8411 76.1919 56.8411H74.4827V61.6009H73.0021ZM74.4827 55.6136H77.6518C78.3272 55.6136 78.8519 55.5463 79.2311 55.4116C79.6104 55.2793 79.8987 55.0649 80.0935 54.7681C80.291 54.4735 80.3897 54.1542 80.3897 53.8075C80.3897 53.3011 80.2001 52.8819 79.8181 52.5552C79.4363 52.2283 78.8336 52.0662 78.0103 52.0662H74.4827V55.6136ZM91.1592 61.6009L95.44 50.8837H97.0636L101.607 61.6009H99.9261L98.6351 58.3528H93.9361L92.7256 61.6009H91.1592ZM94.3698 57.2003H98.1727L97.009 54.2292C96.6583 53.326 96.3934 52.5801 96.209 51.9914C96.0558 52.6899 95.8505 53.3758 95.5933 54.0545L94.3698 57.2003ZM110.935 61.6009V50.8837H114.779C115.647 50.8837 116.309 50.9337 116.766 51.0359C117.405 51.1782 117.951 51.4351 118.403 51.8042C118.992 52.2833 119.431 52.892 119.722 53.6354C120.016 54.3788 120.161 55.2295 120.161 56.185C120.161 56.9982 120.063 57.7192 119.865 58.3479C119.668 58.9765 119.413 59.4978 119.104 59.9096C118.792 60.3211 118.455 60.6454 118.086 60.8799C117.72 61.1169 117.275 61.2965 116.756 61.4188C116.234 61.541 115.636 61.6009 114.961 61.6009H110.935ZM112.415 60.3436H114.795C115.53 60.3436 116.106 60.2787 116.525 60.1465C116.943 60.0142 117.275 59.8297 117.525 59.5901C117.873 59.2534 118.146 58.7993 118.34 58.2306C118.535 57.6617 118.634 56.9733 118.634 56.1625C118.634 55.0399 118.442 54.1767 118.06 53.573C117.678 52.9692 117.213 52.5651 116.665 52.3606C116.27 52.2135 115.634 52.141 114.756 52.141H112.415V60.3436ZM130.378 61.6009V50.8837H138.435V52.141H131.858V55.434H138.015V56.6913H131.858V60.3436H138.7V61.6009H130.378Z" fill="#05642C"/>
<path fill-rule="evenodd" clip-rule="evenodd" d="M37.0732 29C37.1456 29.4108 41.0077 35.1731 38.944 42.1845C37.6371 46.6248 34.7477 49.5574 29.7933 49.4165C24.372 49.2623 22.9195 43.5031 17.9427 45.9071C14.0185 47.8025 14.2158 53.4685 17.3696 56.9723C20.0743 59.9768 24.9749 60.7922 30.0169 59.2075C33.0872 58.2425 35.6163 56.7975 37.7587 54.7087L39.6746 52.4821C41.9605 49.1992 43.5687 45.008 42.81 39.5473C42.1873 35.0666 39.5615 31.0524 37.0732 29Z" fill="#0B4095"/>
</svg>
