<svg width="28" height="21" viewBox="0 0 28 21" fill="none" xmlns="http://www.w3.org/2000/svg">
<rect y="0.5" width="28" height="20" rx="2" fill="white"/>
<mask id="mask0_85_1032" style="mask-type:luminance" maskUnits="userSpaceOnUse" x="0" y="0" width="28" height="21">
<rect y="0.5" width="28" height="20" rx="2" fill="white"/>
</mask>
<g mask="url(#mask0_85_1032)">
<rect y="0.5" width="28" height="20" fill="#F22A46"/>
<path fill-rule="evenodd" clip-rule="evenodd" d="M14.0003 13.8334C15.8413 13.8334 17.3337 12.341 17.3337 10.5C17.3337 8.65907 15.8413 7.16669 14.0003 7.16669C12.1594 7.16669 10.667 8.65907 10.667 10.5C10.667 12.341 12.1594 13.8334 14.0003 13.8334Z" fill="#FFF04D"/>
<path fill-rule="evenodd" clip-rule="evenodd" d="M12.3685 17.6495L14.0003 15.2136L15.6321 17.6495L16.0455 14.7468L18.5726 16.2334L17.6856 13.4389L20.6074 13.6818L18.5958 11.5489L21.3337 10.5L18.5958 9.45112L20.6074 7.31818L17.6856 7.56111L18.5726 4.76657L16.0455 6.25318L15.6321 3.35052L14.0003 5.78638L12.3685 3.35052L11.9552 6.25318L9.42807 4.76657L10.3151 7.56111L7.39322 7.31818L9.40489 9.45112L6.66699 10.5L9.40489 11.5489L7.39322 13.6818L10.3151 13.4389L9.42807 16.2334L11.9552 14.7468L12.3685 17.6495ZM18.667 10.5C18.667 13.0773 16.5777 15.1667 14.0003 15.1667C11.423 15.1667 9.33366 13.0773 9.33366 10.5C9.33366 7.92267 11.423 5.83333 14.0003 5.83333C16.5777 5.83333 18.667 7.92267 18.667 10.5Z" fill="#FFF04D"/>
</g>
</svg>
