<svg width="28" height="21" viewBox="0 0 28 21" fill="none" xmlns="http://www.w3.org/2000/svg">
<rect y="0.5" width="28" height="20" rx="2" fill="white"/>
<mask id="mask0_85_824" style="mask-type:luminance" maskUnits="userSpaceOnUse" x="0" y="0" width="28" height="21">
<rect y="0.5" width="28" height="20" rx="2" fill="white"/>
</mask>
<g mask="url(#mask0_85_824)">
<rect y="0.5" width="28" height="20" fill="#30C6E0"/>
<path fill-rule="evenodd" clip-rule="evenodd" d="M14 14.5C16.2091 14.5 18 12.7091 18 10.5C18 8.29086 16.2091 6.5 14 6.5C11.7909 6.5 10 8.29086 10 10.5C10 12.7091 11.7909 14.5 14 14.5Z" fill="#FFCD4B"/>
<path fill-rule="evenodd" clip-rule="evenodd" d="M12.3685 17.6495L14.0003 15.2136L15.6321 17.6495L16.0455 14.7468L18.5726 16.2334L17.6856 13.4389L20.6074 13.6818L18.5958 11.5489L21.3337 10.5L18.5958 9.45112L20.6074 7.31818L17.6856 7.56111L18.5726 4.76657L16.0455 6.25318L15.6321 3.35052L14.0003 5.78638L12.3685 3.35052L11.9552 6.25318L9.42807 4.76657L10.3151 7.56111L7.39322 7.31818L9.40489 9.45112L6.66699 10.5L9.40489 11.5489L7.39322 13.6818L10.3151 13.4389L9.42807 16.2334L11.9552 14.7468L12.3685 17.6495ZM18.6673 10.5C18.6673 13.0773 16.578 15.1666 14.0007 15.1666C11.4233 15.1666 9.33398 13.0773 9.33398 10.5C9.33398 7.92265 11.4233 5.83331 14.0007 5.83331C16.578 5.83331 18.6673 7.92265 18.6673 10.5Z" fill="#FFCD4B"/>
<path fill-rule="evenodd" clip-rule="evenodd" d="M1.33301 2.16665C1.33301 1.98255 1.48225 1.83331 1.66634 1.83331H2.33301C2.5171 1.83331 2.66634 1.98255 2.66634 2.16665V2.83331C2.66634 3.01741 2.5171 3.16665 2.33301 3.16665H1.66634C1.48225 3.16665 1.33301 3.01741 1.33301 2.83331V2.16665ZM1.33301 4.83331C1.33301 4.64922 1.48225 4.49998 1.66634 4.49998H2.33301C2.5171 4.49998 2.66634 4.64922 2.66634 4.83331V5.49998C2.66634 5.68407 2.5171 5.83331 2.33301 5.83331H1.66634C1.48225 5.83331 1.33301 5.68407 1.33301 5.49998V4.83331ZM1.66634 7.16665C1.48225 7.16665 1.33301 7.31589 1.33301 7.49998V8.16665C1.33301 8.35074 1.48225 8.49998 1.66634 8.49998H2.33301C2.5171 8.49998 2.66634 8.35074 2.66634 8.16665V7.49998C2.66634 7.31589 2.5171 7.16665 2.33301 7.16665H1.66634ZM1.33301 10.1666C1.33301 9.98255 1.48225 9.83331 1.66634 9.83331H2.33301C2.5171 9.83331 2.66634 9.98255 2.66634 10.1666V10.8333C2.66634 11.0174 2.5171 11.1666 2.33301 11.1666H1.66634C1.48225 11.1666 1.33301 11.0174 1.33301 10.8333V10.1666ZM1.66634 12.5C1.48225 12.5 1.33301 12.6492 1.33301 12.8333V13.5C1.33301 13.6841 1.48225 13.8333 1.66634 13.8333H2.33301C2.5171 13.8333 2.66634 13.6841 2.66634 13.5V12.8333C2.66634 12.6492 2.5171 12.5 2.33301 12.5H1.66634ZM1.33301 15.5C1.33301 15.3159 1.48225 15.1666 1.66634 15.1666H2.33301C2.5171 15.1666 2.66634 15.3159 2.66634 15.5V16.1666C2.66634 16.3507 2.5171 16.5 2.33301 16.5H1.66634C1.48225 16.5 1.33301 16.3507 1.33301 16.1666V15.5ZM1.66634 17.8333C1.48225 17.8333 1.33301 17.9826 1.33301 18.1666V18.8333C1.33301 19.0174 1.48225 19.1666 1.66634 19.1666H2.33301C2.5171 19.1666 2.66634 19.0174 2.66634 18.8333V18.1666C2.66634 17.9826 2.5171 17.8333 2.33301 17.8333H1.66634ZM2.66602 16.8333C2.66602 16.6492 2.81525 16.5 2.99935 16.5H3.66602C3.85011 16.5 3.99935 16.6492 3.99935 16.8333V17.5C3.99935 17.6841 3.85011 17.8333 3.66602 17.8333H2.99935C2.81525 17.8333 2.66602 17.6841 2.66602 17.5V16.8333ZM2.99935 13.8333C2.81525 13.8333 2.66602 13.9826 2.66602 14.1666V14.8333C2.66602 15.0174 2.81525 15.1666 2.99935 15.1666H3.66602C3.85011 15.1666 3.99935 15.0174 3.99935 14.8333V14.1666C3.99935 13.9826 3.85011 13.8333 3.66602 13.8333H2.99935ZM2.66602 11.5C2.66602 11.3159 2.81525 11.1666 2.99935 11.1666H3.66602C3.85011 11.1666 3.99935 11.3159 3.99935 11.5V12.1666C3.99935 12.3507 3.85011 12.5 3.66602 12.5H2.99935C2.81525 12.5 2.66602 12.3507 2.66602 12.1666V11.5ZM2.99935 8.5C2.81525 8.5 2.66602 8.64924 2.66602 8.83333V9.5C2.66602 9.68409 2.81525 9.83333 2.99935 9.83333H3.66602C3.85011 9.83333 3.99935 9.68409 3.99935 9.5V8.83333C3.99935 8.64924 3.85011 8.5 3.66602 8.5H2.99935ZM2.66602 6.16665C2.66602 5.98255 2.81525 5.83331 2.99935 5.83331H3.66602C3.85011 5.83331 3.99935 5.98255 3.99935 6.16665V6.83331C3.99935 7.01741 3.85011 7.16665 3.66602 7.16665H2.99935C2.81525 7.16665 2.66602 7.01741 2.66602 6.83331V6.16665ZM2.99935 3.16663C2.81525 3.16663 2.66602 3.31586 2.66602 3.49996V4.16663C2.66602 4.35072 2.81525 4.49996 2.99935 4.49996H3.66602C3.85011 4.49996 3.99935 4.35072 3.99935 4.16663V3.49996C3.99935 3.31586 3.85011 3.16663 3.66602 3.16663H2.99935Z" fill="#FFCD4B"/>
</g>
</svg>
