<svg width="24" height="25" viewBox="0 0 24 25" fill="none" xmlns="http://www.w3.org/2000/svg">
<g clip-path="url(#clip0_436_365)">
<path d="M12 2.5C8.13 2.5 5 5.63 5 9.5C5 11.24 5.5 12.87 6.41 14.34C7.36 15.88 8.61 17.2 9.57 18.74C10.04 19.49 10.38 20.19 10.74 21C11 21.55 11.21 22.5 12 22.5C12.79 22.5 13 21.55 13.25 21C13.62 20.19 13.95 19.49 14.42 18.74C15.38 17.21 16.63 15.89 17.58 14.34C18.5 12.87 19 11.24 19 9.5C19 5.63 15.87 2.5 12 2.5ZM12 12.25C10.62 12.25 9.5 11.13 9.5 9.75C9.5 8.37 10.62 7.25 12 7.25C13.38 7.25 14.5 8.37 14.5 9.75C14.5 11.13 13.38 12.25 12 12.25Z" fill="white"/>
</g>
<defs>
<clipPath id="clip0_436_365">
<rect width="24" height="24" fill="white" transform="translate(0 0.5)"/>
</clipPath>
</defs>
</svg>
