<svg width="281" height="62" viewBox="0 0 281 62" fill="none" xmlns="http://www.w3.org/2000/svg">
<g clip-path="url(#clip0_328_708)">
<path d="M52.35 0.5H9.65C4.58585 0.5 0.5 4.58585 0.5 9.65V52.35C0.5 57.3566 4.58585 61.5 9.65 61.5H52.35C57.4141 61.5 61.5 57.4141 61.5 52.35V9.65C61.5 4.58585 57.3566 0.5 52.35 0.5ZM23.1161 20.6991H28.8707L30.9424 25.5906H26.3963L21.9076 36.3519C21.9076 36.3519 35.0283 36.3519 35.5463 36.3519L37.6755 41.4735L14.7717 41.5311L23.1161 20.6991ZM11.4339 49.7604L13.4481 44.8113C14.3689 44.8113 42.7396 44.7537 42.7396 44.7537L37.733 33.0141H26.9141L28.6406 28.9283C28.7557 28.9283 34.2802 28.8707 35.9491 28.8707L31.0576 17.4765H24.3821L26.4537 12.2972H34.5104L50.4509 49.7028L11.4339 49.7604Z" fill="#006DB5"/>
</g>
<path d="M74.876 31.448C74.876 31.992 74.94 32.4827 75.068 32.92C75.2067 33.3573 75.3987 33.736 75.644 34.056C75.9 34.3653 76.2093 34.6053 76.572 34.776C76.9347 34.9467 77.3507 35.032 77.82 35.032C78.2787 35.032 78.6893 34.9467 79.052 34.776C79.4253 34.6053 79.7347 34.3653 79.98 34.056C80.236 33.736 80.428 33.3573 80.556 32.92C80.6947 32.4827 80.764 31.992 80.764 31.448C80.764 30.904 80.6947 30.4133 80.556 29.976C80.428 29.528 80.236 29.1493 79.98 28.84C79.7347 28.52 79.4253 28.2747 79.052 28.104C78.6893 27.9333 78.2787 27.848 77.82 27.848C77.3507 27.848 76.9347 27.9387 76.572 28.12C76.2093 28.2907 75.9 28.536 75.644 28.856C75.3987 29.1653 75.2067 29.544 75.068 29.992C74.94 30.4293 74.876 30.9147 74.876 31.448ZM83.34 31.448C83.34 32.3973 83.196 33.2347 82.908 33.96C82.6307 34.6747 82.2467 35.2773 81.756 35.768C81.2653 36.248 80.6787 36.6107 79.996 36.856C79.324 37.1013 78.5987 37.224 77.82 37.224C77.0627 37.224 76.348 37.1013 75.676 36.856C75.004 36.6107 74.4173 36.248 73.916 35.768C73.4147 35.2773 73.02 34.6747 72.732 33.96C72.444 33.2347 72.3 32.3973 72.3 31.448C72.3 30.4987 72.4493 29.6667 72.748 28.952C73.0467 28.2267 73.4467 27.6187 73.948 27.128C74.46 26.6373 75.0467 26.2693 75.708 26.024C76.38 25.7787 77.084 25.656 77.82 25.656C78.5773 25.656 79.292 25.7787 79.964 26.024C80.636 26.2693 81.2227 26.6373 81.724 27.128C82.2253 27.6187 82.62 28.2267 82.908 28.952C83.196 29.6667 83.34 30.4987 83.34 31.448ZM87.5166 31.448C87.5166 31.992 87.5806 32.4827 87.7086 32.92C87.8473 33.3573 88.0393 33.736 88.2846 34.056C88.5406 34.3653 88.85 34.6053 89.2126 34.776C89.5753 34.9467 89.9913 35.032 90.4606 35.032C90.9193 35.032 91.33 34.9467 91.6926 34.776C92.066 34.6053 92.3753 34.3653 92.6206 34.056C92.8766 33.736 93.0686 33.3573 93.1966 32.92C93.3353 32.4827 93.4046 31.992 93.4046 31.448C93.4046 30.904 93.3353 30.4133 93.1966 29.976C93.0686 29.528 92.8766 29.1493 92.6206 28.84C92.3753 28.52 92.066 28.2747 91.6926 28.104C91.33 27.9333 90.9193 27.848 90.4606 27.848C89.9913 27.848 89.5753 27.9387 89.2126 28.12C88.85 28.2907 88.5406 28.536 88.2846 28.856C88.0393 29.1653 87.8473 29.544 87.7086 29.992C87.5806 30.4293 87.5166 30.9147 87.5166 31.448ZM95.9806 31.448C95.9806 32.3973 95.8366 33.2347 95.5486 33.96C95.2713 34.6747 94.8873 35.2773 94.3966 35.768C93.906 36.248 93.3193 36.6107 92.6366 36.856C91.9646 37.1013 91.2393 37.224 90.4606 37.224C89.7033 37.224 88.9886 37.1013 88.3166 36.856C87.6446 36.6107 87.058 36.248 86.5566 35.768C86.0553 35.2773 85.6606 34.6747 85.3726 33.96C85.0846 33.2347 84.9406 32.3973 84.9406 31.448C84.9406 30.4987 85.09 29.6667 85.3886 28.952C85.6873 28.2267 86.0873 27.6187 86.5886 27.128C87.1006 26.6373 87.6873 26.2693 88.3486 26.024C89.0206 25.7787 89.7246 25.656 90.4606 25.656C91.218 25.656 91.9326 25.7787 92.6046 26.024C93.2766 26.2693 93.8633 26.6373 94.3646 27.128C94.866 27.6187 95.2606 28.2267 95.5486 28.952C95.8366 29.6667 95.9806 30.4987 95.9806 31.448ZM100.157 31.448C100.157 31.992 100.221 32.4827 100.349 32.92C100.488 33.3573 100.68 33.736 100.925 34.056C101.181 34.3653 101.491 34.6053 101.853 34.776C102.216 34.9467 102.632 35.032 103.101 35.032C103.56 35.032 103.971 34.9467 104.333 34.776C104.707 34.6053 105.016 34.3653 105.261 34.056C105.517 33.736 105.709 33.3573 105.837 32.92C105.976 32.4827 106.045 31.992 106.045 31.448C106.045 30.904 105.976 30.4133 105.837 29.976C105.709 29.528 105.517 29.1493 105.261 28.84C105.016 28.52 104.707 28.2747 104.333 28.104C103.971 27.9333 103.56 27.848 103.101 27.848C102.632 27.848 102.216 27.9387 101.853 28.12C101.491 28.2907 101.181 28.536 100.925 28.856C100.68 29.1653 100.488 29.544 100.349 29.992C100.221 30.4293 100.157 30.9147 100.157 31.448ZM108.621 31.448C108.621 32.3973 108.477 33.2347 108.189 33.96C107.912 34.6747 107.528 35.2773 107.037 35.768C106.547 36.248 105.96 36.6107 105.277 36.856C104.605 37.1013 103.88 37.224 103.101 37.224C102.344 37.224 101.629 37.1013 100.957 36.856C100.285 36.6107 99.6986 36.248 99.1973 35.768C98.6959 35.2773 98.3013 34.6747 98.0133 33.96C97.7253 33.2347 97.5813 32.3973 97.5813 31.448C97.5813 30.4987 97.7306 29.6667 98.0293 28.952C98.3279 28.2267 98.7279 27.6187 99.2293 27.128C99.7413 26.6373 100.328 26.2693 100.989 26.024C101.661 25.7787 102.365 25.656 103.101 25.656C103.859 25.656 104.573 25.7787 105.245 26.024C105.917 26.2693 106.504 26.6373 107.005 27.128C107.507 27.6187 107.901 28.2267 108.189 28.952C108.477 29.6667 108.621 30.4987 108.621 31.448ZM113.97 29.08C113.948 28.9307 113.932 28.776 113.922 28.616C113.911 28.456 113.906 28.3387 113.906 28.264C113.906 27.5493 114.034 26.872 114.29 26.232C114.546 25.5813 114.86 25.032 115.234 24.584L116.85 24.952C116.647 25.4107 116.482 25.9333 116.354 26.52C116.236 27.096 116.178 27.6453 116.178 28.168C116.178 28.1893 116.178 28.2373 116.178 28.312C116.178 28.376 116.178 28.456 116.178 28.552C116.188 28.6373 116.194 28.728 116.194 28.824C116.204 28.92 116.215 29.0053 116.226 29.08H113.97ZM117.41 29.08C117.388 28.9307 117.372 28.776 117.362 28.616C117.351 28.456 117.346 28.3387 117.346 28.264C117.346 27.5493 117.474 26.872 117.73 26.232C117.986 25.5813 118.3 25.032 118.674 24.584L120.29 24.952C120.087 25.4107 119.922 25.9333 119.794 26.52C119.676 27.096 119.618 27.6453 119.618 28.168C119.618 28.1893 119.618 28.2373 119.618 28.312C119.618 28.376 119.618 28.456 119.618 28.552C119.628 28.6373 119.634 28.728 119.634 28.824C119.644 28.92 119.655 29.0053 119.666 29.08H117.41ZM130.931 25.912V37H128.435V28.024H124.307V37H121.811V25.912H130.931ZM138.731 32.856C138.731 32.12 138.565 31.5333 138.235 31.096C137.904 30.648 137.413 30.424 136.763 30.424C136.549 30.424 136.352 30.4347 136.171 30.456C135.989 30.4667 135.84 30.4827 135.723 30.504V34.808C135.872 34.904 136.064 34.984 136.299 35.048C136.544 35.112 136.789 35.144 137.035 35.144C138.165 35.144 138.731 34.3813 138.731 32.856ZM141.163 32.792C141.163 33.4427 141.083 34.0347 140.923 34.568C140.763 35.1013 140.528 35.56 140.219 35.944C139.909 36.328 139.525 36.6267 139.067 36.84C138.608 37.0533 138.08 37.16 137.483 37.16C137.152 37.16 136.843 37.128 136.555 37.064C136.267 37 135.989 36.9093 135.723 36.792V39.96H133.339V28.872C133.552 28.808 133.797 28.7493 134.075 28.696C134.352 28.632 134.64 28.5787 134.939 28.536C135.248 28.4933 135.557 28.4613 135.867 28.44C136.187 28.408 136.491 28.392 136.779 28.392C137.472 28.392 138.091 28.4987 138.635 28.712C139.179 28.9147 139.637 29.208 140.011 29.592C140.384 29.9653 140.667 30.424 140.859 30.968C141.061 31.512 141.163 32.12 141.163 32.792ZM150.867 32.776C150.867 33.4373 150.771 34.0453 150.579 34.6C150.387 35.144 150.11 35.6133 149.747 36.008C149.384 36.392 148.947 36.6907 148.435 36.904C147.934 37.1173 147.368 37.224 146.739 37.224C146.12 37.224 145.555 37.1173 145.043 36.904C144.542 36.6907 144.11 36.392 143.747 36.008C143.384 35.6133 143.102 35.144 142.899 34.6C142.696 34.0453 142.595 33.4373 142.595 32.776C142.595 32.1147 142.696 31.512 142.899 30.968C143.112 30.424 143.4 29.96 143.763 29.576C144.136 29.192 144.574 28.8933 145.075 28.68C145.587 28.4667 146.142 28.36 146.739 28.36C147.347 28.36 147.902 28.4667 148.403 28.68C148.915 28.8933 149.352 29.192 149.715 29.576C150.078 29.96 150.36 30.424 150.563 30.968C150.766 31.512 150.867 32.1147 150.867 32.776ZM148.435 32.776C148.435 32.04 148.286 31.464 147.987 31.048C147.699 30.6213 147.283 30.408 146.739 30.408C146.195 30.408 145.774 30.6213 145.475 31.048C145.176 31.464 145.027 32.04 145.027 32.776C145.027 33.512 145.176 34.0987 145.475 34.536C145.774 34.9627 146.195 35.176 146.739 35.176C147.283 35.176 147.699 34.9627 147.987 34.536C148.286 34.0987 148.435 33.512 148.435 32.776ZM155.082 32.152C155.06 32.5253 155.039 32.9307 155.018 33.368C154.996 33.8053 154.975 34.248 154.954 34.696C154.943 35.1333 154.927 35.5547 154.906 35.96C154.895 36.3547 154.884 36.7013 154.874 37H152.554C152.575 36.4133 152.607 35.752 152.65 35.016C152.703 34.28 152.756 33.5333 152.81 32.776C152.874 32.008 152.938 31.2613 153.002 30.536C153.076 29.8107 153.146 29.16 153.21 28.584H155.194C155.652 29.3307 156.074 30.104 156.458 30.904C156.842 31.704 157.247 32.584 157.674 33.544C158.122 32.52 158.559 31.576 158.986 30.712C159.412 29.8373 159.796 29.128 160.138 28.584H162.154C162.228 29.16 162.298 29.8107 162.362 30.536C162.436 31.2613 162.5 32.008 162.554 32.776C162.618 33.5333 162.671 34.28 162.714 35.016C162.756 35.752 162.788 36.4133 162.81 37H160.442C160.42 36.168 160.388 35.3413 160.346 34.52C160.314 33.6987 160.282 32.904 160.25 32.136L158.49 36.008H156.842L155.082 32.152ZM171.542 32.744C171.542 33.4587 171.435 34.0933 171.222 34.648C171.008 35.2027 170.71 35.6667 170.326 36.04C169.952 36.4133 169.499 36.7013 168.966 36.904C168.443 37.096 167.862 37.192 167.222 37.192C166.688 37.192 166.187 37.1547 165.718 37.08C165.259 37.0053 164.763 36.8667 164.23 36.664L164.678 34.792C164.987 34.8987 165.35 34.9947 165.766 35.08C166.182 35.1653 166.576 35.208 166.95 35.208C167.216 35.208 167.472 35.1813 167.718 35.128C167.963 35.0747 168.182 34.984 168.374 34.856C168.576 34.728 168.742 34.5627 168.87 34.36C169.008 34.1467 169.099 33.8907 169.142 33.592H165.942V31.88H169.126C169.04 31.2827 168.806 30.872 168.422 30.648C168.048 30.424 167.59 30.312 167.046 30.312C166.64 30.312 166.272 30.3493 165.942 30.424C165.622 30.488 165.286 30.5733 164.934 30.68L164.486 28.84C164.966 28.6693 165.43 28.5467 165.878 28.472C166.326 28.3973 166.758 28.36 167.174 28.36C167.824 28.36 168.416 28.4613 168.95 28.664C169.483 28.856 169.942 29.144 170.326 29.528C170.71 29.9013 171.008 30.36 171.222 30.904C171.435 31.448 171.542 32.0613 171.542 32.744ZM180.477 37H178.093V33.672H175.613V37H173.229V28.584H175.613V31.72H178.093V28.584H180.477V37ZM182.314 32.856C182.314 32.1093 182.426 31.4587 182.65 30.904C182.884 30.3387 183.188 29.8693 183.562 29.496C183.935 29.1227 184.362 28.84 184.842 28.648C185.332 28.456 185.834 28.36 186.346 28.36C187.54 28.36 188.484 28.728 189.178 29.464C189.871 30.1893 190.218 31.2613 190.218 32.68C190.218 32.8187 190.212 32.9733 190.202 33.144C190.191 33.304 190.18 33.448 190.17 33.576H184.762C184.815 34.0667 185.044 34.456 185.45 34.744C185.855 35.032 186.399 35.176 187.082 35.176C187.519 35.176 187.946 35.1387 188.362 35.064C188.788 34.9787 189.135 34.8773 189.402 34.76L189.722 36.696C189.594 36.76 189.423 36.824 189.21 36.888C188.996 36.952 188.756 37.0053 188.49 37.048C188.234 37.1013 187.956 37.144 187.658 37.176C187.359 37.208 187.06 37.224 186.762 37.224C186.004 37.224 185.343 37.112 184.778 36.888C184.223 36.664 183.759 36.36 183.386 35.976C183.023 35.5813 182.751 35.1173 182.57 34.584C182.399 34.0507 182.314 33.4747 182.314 32.856ZM187.914 31.944C187.903 31.7413 187.866 31.544 187.802 31.352C187.748 31.16 187.658 30.9893 187.53 30.84C187.412 30.6907 187.258 30.568 187.066 30.472C186.884 30.376 186.655 30.328 186.378 30.328C186.111 30.328 185.882 30.376 185.69 30.472C185.498 30.5573 185.338 30.6747 185.21 30.824C185.082 30.9733 184.98 31.1493 184.906 31.352C184.842 31.544 184.794 31.7413 184.762 31.944H187.914ZM197.45 32.856C197.45 32.12 197.284 31.5333 196.954 31.096C196.623 30.648 196.132 30.424 195.482 30.424C195.268 30.424 195.071 30.4347 194.89 30.456C194.708 30.4667 194.559 30.4827 194.442 30.504V34.808C194.591 34.904 194.783 34.984 195.018 35.048C195.263 35.112 195.508 35.144 195.754 35.144C196.884 35.144 197.45 34.3813 197.45 32.856ZM199.882 32.792C199.882 33.4427 199.802 34.0347 199.642 34.568C199.482 35.1013 199.247 35.56 198.938 35.944C198.628 36.328 198.244 36.6267 197.786 36.84C197.327 37.0533 196.799 37.16 196.202 37.16C195.871 37.16 195.562 37.128 195.274 37.064C194.986 37 194.708 36.9093 194.442 36.792V39.96H192.058V28.872C192.271 28.808 192.516 28.7493 192.794 28.696C193.071 28.632 193.359 28.5787 193.658 28.536C193.967 28.4933 194.276 28.4613 194.586 28.44C194.906 28.408 195.21 28.392 195.498 28.392C196.191 28.392 196.81 28.4987 197.354 28.712C197.898 28.9147 198.356 29.208 198.73 29.592C199.103 29.9653 199.386 30.424 199.578 30.968C199.78 31.512 199.882 32.12 199.882 32.792ZM207.682 30.536H204.098V37H201.714V28.584H207.682V30.536ZM216.836 32.776C216.836 33.4373 216.74 34.0453 216.548 34.6C216.356 35.144 216.078 35.6133 215.716 36.008C215.353 36.392 214.916 36.6907 214.404 36.904C213.902 37.1173 213.337 37.224 212.708 37.224C212.089 37.224 211.524 37.1173 211.012 36.904C210.51 36.6907 210.078 36.392 209.716 36.008C209.353 35.6133 209.07 35.144 208.868 34.6C208.665 34.0453 208.564 33.4373 208.564 32.776C208.564 32.1147 208.665 31.512 208.868 30.968C209.081 30.424 209.369 29.96 209.732 29.576C210.105 29.192 210.542 28.8933 211.044 28.68C211.556 28.4667 212.11 28.36 212.708 28.36C213.316 28.36 213.87 28.4667 214.372 28.68C214.884 28.8933 215.321 29.192 215.684 29.576C216.046 29.96 216.329 30.424 216.532 30.968C216.734 31.512 216.836 32.1147 216.836 32.776ZM214.404 32.776C214.404 32.04 214.254 31.464 213.956 31.048C213.668 30.6213 213.252 30.408 212.708 30.408C212.164 30.408 211.742 30.6213 211.444 31.048C211.145 31.464 210.996 32.04 210.996 32.776C210.996 33.512 211.145 34.0987 211.444 34.536C211.742 34.9627 212.164 35.176 212.708 35.176C213.252 35.176 213.668 34.9627 213.956 34.536C214.254 34.0987 214.404 33.512 214.404 32.776ZM218.283 32.792C218.283 32.184 218.379 31.6133 218.571 31.08C218.773 30.536 219.061 30.0667 219.435 29.672C219.808 29.2667 220.261 28.9467 220.795 28.712C221.328 28.4773 221.936 28.36 222.619 28.36C223.067 28.36 223.477 28.4027 223.851 28.488C224.224 28.5627 224.587 28.6747 224.939 28.824L224.443 30.728C224.219 30.6427 223.973 30.568 223.707 30.504C223.44 30.44 223.141 30.408 222.811 30.408C222.107 30.408 221.579 30.6267 221.227 31.064C220.885 31.5013 220.715 32.0773 220.715 32.792C220.715 33.5493 220.875 34.136 221.195 34.552C221.525 34.968 222.096 35.176 222.907 35.176C223.195 35.176 223.504 35.1493 223.835 35.096C224.165 35.0427 224.469 34.9573 224.747 34.84L225.083 36.792C224.805 36.9093 224.459 37.0107 224.043 37.096C223.627 37.1813 223.168 37.224 222.667 37.224C221.899 37.224 221.237 37.112 220.683 36.888C220.128 36.6533 219.669 36.3387 219.307 35.944C218.955 35.5493 218.693 35.0853 218.523 34.552C218.363 34.008 218.283 33.4213 218.283 32.792ZM226.283 32.856C226.283 32.1093 226.395 31.4587 226.618 30.904C226.853 30.3387 227.157 29.8693 227.531 29.496C227.904 29.1227 228.331 28.84 228.811 28.648C229.301 28.456 229.803 28.36 230.315 28.36C231.509 28.36 232.453 28.728 233.147 29.464C233.84 30.1893 234.187 31.2613 234.187 32.68C234.187 32.8187 234.181 32.9733 234.171 33.144C234.16 33.304 234.149 33.448 234.139 33.576H228.731C228.784 34.0667 229.013 34.456 229.419 34.744C229.824 35.032 230.368 35.176 231.051 35.176C231.488 35.176 231.915 35.1387 232.331 35.064C232.757 34.9787 233.104 34.8773 233.371 34.76L233.691 36.696C233.563 36.76 233.392 36.824 233.179 36.888C232.965 36.952 232.725 37.0053 232.459 37.048C232.203 37.1013 231.925 37.144 231.627 37.176C231.328 37.208 231.029 37.224 230.731 37.224C229.973 37.224 229.312 37.112 228.747 36.888C228.192 36.664 227.728 36.36 227.355 35.976C226.992 35.5813 226.72 35.1173 226.539 34.584C226.368 34.0507 226.283 33.4747 226.283 32.856ZM231.883 31.944C231.872 31.7413 231.835 31.544 231.771 31.352C231.717 31.16 231.627 30.9893 231.499 30.84C231.381 30.6907 231.227 30.568 231.035 30.472C230.853 30.376 230.624 30.328 230.347 30.328C230.08 30.328 229.851 30.376 229.659 30.472C229.467 30.5573 229.307 30.6747 229.179 30.824C229.051 30.9733 228.949 31.1493 228.875 31.352C228.811 31.544 228.763 31.7413 228.731 31.944H231.883ZM241.418 32.856C241.418 32.12 241.253 31.5333 240.922 31.096C240.592 30.648 240.101 30.424 239.45 30.424C239.237 30.424 239.04 30.4347 238.858 30.456C238.677 30.4667 238.528 30.4827 238.41 30.504V34.808C238.56 34.904 238.752 34.984 238.986 35.048C239.232 35.112 239.477 35.144 239.722 35.144C240.853 35.144 241.418 34.3813 241.418 32.856ZM243.85 32.792C243.85 33.4427 243.77 34.0347 243.61 34.568C243.45 35.1013 243.216 35.56 242.906 35.944C242.597 36.328 242.213 36.6267 241.754 36.84C241.296 37.0533 240.768 37.16 240.17 37.16C239.84 37.16 239.53 37.128 239.242 37.064C238.954 37 238.677 36.9093 238.41 36.792V39.96H236.026V28.872C236.24 28.808 236.485 28.7493 236.762 28.696C237.04 28.632 237.328 28.5787 237.626 28.536C237.936 28.4933 238.245 28.4613 238.554 28.44C238.874 28.408 239.178 28.392 239.466 28.392C240.16 28.392 240.778 28.4987 241.322 28.712C241.866 28.9147 242.325 29.208 242.698 29.592C243.072 29.9653 243.354 30.424 243.546 30.968C243.749 31.512 243.85 32.12 243.85 32.792ZM248.067 35.24C248.216 35.2613 248.413 35.2827 248.659 35.304C248.915 35.3147 249.149 35.32 249.363 35.32C249.896 35.32 250.312 35.256 250.611 35.128C250.909 34.9893 251.059 34.744 251.059 34.392C251.059 34.0507 250.92 33.816 250.643 33.688C250.376 33.5493 249.981 33.48 249.459 33.48H248.067V35.24ZM249.411 31.88C249.805 31.88 250.125 31.832 250.371 31.736C250.616 31.6293 250.739 31.4053 250.739 31.064C250.739 30.744 250.6 30.5253 250.323 30.408C250.045 30.2907 249.683 30.232 249.235 30.232C249.085 30.232 248.888 30.2427 248.643 30.264C248.408 30.2747 248.216 30.2907 248.067 30.312V31.88H249.411ZM249.331 37.16C249.032 37.16 248.712 37.1493 248.371 37.128C248.029 37.1067 247.693 37.0747 247.363 37.032C247.032 37 246.717 36.9627 246.419 36.92C246.131 36.8667 245.885 36.8187 245.683 36.776V28.712C245.885 28.6693 246.131 28.632 246.419 28.6C246.717 28.5573 247.032 28.52 247.363 28.488C247.693 28.456 248.029 28.4347 248.371 28.424C248.712 28.4027 249.032 28.392 249.331 28.392C250.024 28.392 250.605 28.4613 251.075 28.6C251.555 28.7387 251.939 28.92 252.227 29.144C252.525 29.368 252.739 29.6187 252.867 29.896C252.995 30.1733 253.059 30.4507 253.059 30.728C253.059 31.1013 252.968 31.4427 252.786 31.752C252.605 32.0613 252.376 32.2853 252.099 32.424C252.248 32.488 252.397 32.5787 252.547 32.696C252.707 32.8133 252.851 32.9573 252.979 33.128C253.107 33.288 253.208 33.4853 253.283 33.72C253.368 33.944 253.411 34.2053 253.411 34.504C253.411 34.8453 253.341 35.176 253.203 35.496C253.075 35.816 252.851 36.0987 252.531 36.344C252.211 36.5893 251.789 36.7867 251.267 36.936C250.744 37.0853 250.099 37.16 249.331 37.16ZM262.909 28.584V37H260.509C260.509 36.4667 260.514 35.9387 260.525 35.416C260.536 34.8827 260.546 34.392 260.557 33.944C260.568 33.496 260.578 33.1067 260.589 32.776C260.61 32.4347 260.621 32.184 260.621 32.024C260.312 32.4613 260.002 32.904 259.693 33.352C259.384 33.8 259.085 34.2427 258.797 34.68C258.52 35.1067 258.253 35.5173 257.997 35.912C257.752 36.3067 257.533 36.6693 257.341 37H255.245V28.584H257.629C257.629 29.1173 257.624 29.6293 257.613 30.12C257.613 30.6 257.608 31.0373 257.597 31.432C257.586 31.8267 257.576 32.1733 257.565 32.472C257.554 32.76 257.549 32.984 257.549 33.144C258.189 32.2053 258.776 31.3627 259.309 30.616C259.853 29.8693 260.381 29.192 260.893 28.584H262.909ZM264.751 32.792C264.751 32.184 264.847 31.6133 265.039 31.08C265.242 30.536 265.53 30.0667 265.903 29.672C266.277 29.2667 266.73 28.9467 267.263 28.712C267.797 28.4773 268.405 28.36 269.087 28.36C269.535 28.36 269.946 28.4027 270.319 28.488C270.693 28.5627 271.055 28.6747 271.407 28.824L270.911 30.728C270.687 30.6427 270.442 30.568 270.175 30.504C269.909 30.44 269.61 30.408 269.279 30.408C268.575 30.408 268.047 30.6267 267.695 31.064C267.354 31.5013 267.183 32.0773 267.183 32.792C267.183 33.5493 267.343 34.136 267.663 34.552C267.994 34.968 268.565 35.176 269.375 35.176C269.663 35.176 269.973 35.1493 270.303 35.096C270.634 35.0427 270.938 34.9573 271.215 34.84L271.551 36.792C271.274 36.9093 270.927 37.0107 270.511 37.096C270.095 37.1813 269.637 37.224 269.135 37.224C268.367 37.224 267.706 37.112 267.151 36.888C266.597 36.6533 266.138 36.3387 265.775 35.944C265.423 35.5493 265.162 35.0853 264.991 34.552C264.831 34.008 264.751 33.4213 264.751 32.792ZM278.998 24.728C279.019 24.8773 279.035 25.032 279.046 25.192C279.056 25.352 279.062 25.4693 279.062 25.544C279.062 26.2587 278.934 26.9413 278.678 27.592C278.422 28.232 278.107 28.776 277.734 29.224L276.118 28.856C276.32 28.3973 276.48 27.88 276.598 27.304C276.726 26.7173 276.79 26.1627 276.79 25.64C276.79 25.6187 276.79 25.576 276.79 25.512C276.79 25.4373 276.784 25.3573 276.774 25.272C276.774 25.176 276.768 25.08 276.758 24.984C276.758 24.888 276.752 24.8027 276.742 24.728H278.998ZM275.558 24.728C275.579 24.8773 275.595 25.032 275.606 25.192C275.616 25.352 275.622 25.4693 275.622 25.544C275.622 26.2587 275.494 26.9413 275.238 27.592C274.982 28.232 274.667 28.776 274.294 29.224L272.678 28.856C272.88 28.3973 273.04 27.88 273.158 27.304C273.286 26.7173 273.35 26.1627 273.35 25.64C273.35 25.6187 273.35 25.576 273.35 25.512C273.35 25.4373 273.344 25.3573 273.334 25.272C273.334 25.176 273.328 25.08 273.318 24.984C273.318 24.888 273.312 24.8027 273.302 24.728H275.558Z" fill="#006DB5"/>
<defs>
<clipPath id="clip0_328_708">
<rect width="61" height="61" fill="white" transform="translate(0.5 0.5)"/>
</clipPath>
</defs>
</svg>
