<svg width="24" height="24" viewBox="0 0 24 24" fill="none" xmlns="http://www.w3.org/2000/svg">
<path fill-rule="evenodd" clip-rule="evenodd" d="M14.71 14.255H15.5L20.49 19.255L19 20.745L14 15.755V14.965L13.73 14.685C12.59 15.665 11.11 16.255 9.5 16.255C5.91 16.255 3 13.345 3 9.755C3 6.165 5.91 3.255 9.5 3.255C13.09 3.255 16 6.165 16 9.755C16 11.365 15.41 12.845 14.43 13.985L14.71 14.255ZM5 9.755C5 12.245 7.01 14.255 9.5 14.255C11.99 14.255 14 12.245 14 9.755C14 7.26501 11.99 5.255 9.5 5.255C7.01 5.255 5 7.26501 5 9.755Z" fill="#878787"/>
</svg>
