<svg width="193" height="87" viewBox="0 0 193 87" fill="none" xmlns="http://www.w3.org/2000/svg">
<path d="M10.256 56.36C8.264 56.36 5.888 56.168 3.128 55.784V52.868C5.912 53.468 8.36 53.768 10.472 53.768C12.248 53.768 13.544 53.576 14.36 53.192C15.176 52.784 15.584 52.04 15.584 50.96V47.936C15.584 46.928 15.296 46.22 14.72 45.812C14.144 45.404 13.136 45.2 11.696 45.2H8.96C6.68 45.2 5.06 44.744 4.1 43.832C3.14 42.92 2.66 41.504 2.66 39.584V37.712C2.66 36.44 2.936 35.408 3.488 34.616C4.064 33.824 5.012 33.236 6.332 32.852C7.676 32.468 9.512 32.276 11.84 32.276C13.4 32.276 15.404 32.408 17.852 32.672V35.3C15.116 34.892 13.028 34.688 11.588 34.688C9.356 34.688 7.88 34.904 7.16 35.336C6.416 35.792 6.044 36.548 6.044 37.604V40.268C6.044 41.084 6.332 41.684 6.908 42.068C7.508 42.428 8.528 42.608 9.968 42.608H12.776C14.384 42.608 15.632 42.8 16.52 43.184C17.432 43.568 18.068 44.156 18.428 44.948C18.812 45.716 19.004 46.76 19.004 48.08V49.772C19.004 51.428 18.692 52.736 18.068 53.696C17.468 54.656 16.532 55.34 15.26 55.748C13.988 56.156 12.32 56.36 10.256 56.36ZM24.0201 32.636H27.5121V56H24.0201V32.636ZM33.5474 32.636H41.8994C43.8914 32.636 45.4754 32.84 46.6514 33.248C47.7314 33.632 48.4514 34.112 48.8114 34.688C49.1954 35.264 49.3874 36.056 49.3874 37.064V40.196C49.3874 41.132 49.1234 41.864 48.5954 42.392C48.0674 42.896 47.2634 43.268 46.1834 43.508V43.652C47.4554 43.868 48.4754 44.312 49.2434 44.984C50.0354 45.632 50.4314 46.448 50.4314 47.432V51.356C50.4314 53.06 49.7954 54.26 48.5234 54.956C47.2514 55.652 45.1274 56 42.1514 56H33.5474V32.636ZM42.0074 42.86C43.4714 42.86 44.5154 42.644 45.1394 42.212C45.7874 41.756 46.1114 41.048 46.1114 40.088V37.352C46.1114 36.464 45.7874 35.84 45.1394 35.48C44.4914 35.12 43.4114 34.94 41.8994 34.94H37.0394V42.86H42.0074ZM42.1514 53.588C43.9034 53.588 45.1394 53.408 45.8594 53.048C46.5794 52.688 46.9394 52.076 46.9394 51.212V47.684C46.9394 47.06 46.8074 46.568 46.5434 46.208C46.3034 45.824 45.9194 45.548 45.3914 45.38C44.8634 45.236 44.3954 45.152 43.9874 45.128C43.5794 45.08 42.9674 45.056 42.1514 45.056H37.0394V53.588H42.1514ZM55.6256 32.636H60.8456L68.3336 52.076L68.4416 52.112L75.5336 32.636H80.5736V56H77.5136V36.236H77.3336L69.8096 56H66.6776L58.9376 36.236H58.7576V56H55.6256V32.636ZM93.4374 32.636H97.4694L106.541 56H102.905L100.241 48.908H90.2334L87.6054 56H84.1494L93.4374 32.636ZM99.3774 46.496L95.4174 35.948H95.0934L91.1334 46.496H99.3774ZM116.85 56.36C114.858 56.36 112.482 56.168 109.722 55.784V52.868C112.506 53.468 114.954 53.768 117.066 53.768C118.842 53.768 120.138 53.576 120.954 53.192C121.77 52.784 122.178 52.04 122.178 50.96V47.936C122.178 46.928 121.89 46.22 121.314 45.812C120.738 45.404 119.73 45.2 118.29 45.2H115.554C113.274 45.2 111.654 44.744 110.694 43.832C109.734 42.92 109.254 41.504 109.254 39.584V37.712C109.254 36.44 109.53 35.408 110.082 34.616C110.658 33.824 111.606 33.236 112.926 32.852C114.27 32.468 116.106 32.276 118.434 32.276C119.994 32.276 121.998 32.408 124.446 32.672V35.3C121.71 34.892 119.622 34.688 118.182 34.688C115.95 34.688 114.474 34.904 113.754 35.336C113.01 35.792 112.638 36.548 112.638 37.604V40.268C112.638 41.084 112.926 41.684 113.502 42.068C114.102 42.428 115.122 42.608 116.562 42.608H119.37C120.978 42.608 122.226 42.8 123.114 43.184C124.026 43.568 124.662 44.156 125.022 44.948C125.406 45.716 125.598 46.76 125.598 48.08V49.772C125.598 51.428 125.286 52.736 124.662 53.696C124.062 54.656 123.126 55.34 121.854 55.748C120.582 56.156 118.914 56.36 116.85 56.36ZM136.374 35.084H128.454V32.636H147.786V35.084H139.902V56H136.374V35.084ZM151.672 32.636H167.368V35.084H155.164V42.716H166.18V45.164H155.164V53.552H167.728V56H151.672V32.636ZM172.555 32.636H180.763C182.827 32.636 184.435 32.768 185.587 33.032C186.763 33.272 187.615 33.716 188.143 34.364C188.695 35.012 188.971 35.96 188.971 37.208V41.24C188.971 42.632 188.395 43.712 187.243 44.48C186.115 45.224 184.675 45.596 182.923 45.596L190.411 56H186.127L179.431 46.028H176.047V56H172.555V32.636ZM180.619 43.724C182.347 43.724 183.583 43.52 184.327 43.112C185.095 42.68 185.479 41.912 185.479 40.808V37.568C185.479 35.816 183.967 34.94 180.943 34.94H176.047V43.724H180.619Z" fill="black"/>
</svg>
