<svg width="25" height="25" viewBox="0 0 25 25" fill="none" xmlns="http://www.w3.org/2000/svg">
<path fill-rule="evenodd" clip-rule="evenodd" d="M25 12.5C25 19.4036 19.4036 25 12.5 25C5.59644 25 0 19.4036 0 12.5C0 5.59644 5.59644 0 12.5 0C19.4036 0 25 5.59644 25 12.5ZM8.37059 11.3549C7.11841 11.9016 5.83181 12.4634 4.65534 13.1114L4.65526 13.1115C4.04094 13.5612 4.85749 13.8794 5.62346 14.1778C5.74524 14.2252 5.86574 14.2722 5.97901 14.3191C6.07326 14.348 6.16911 14.3786 6.26624 14.4095C7.11815 14.6809 8.06809 14.9836 8.89515 14.5283C10.2538 13.7479 11.5359 12.8456 12.8171 11.9439C13.2369 11.6485 13.6565 11.3532 14.0787 11.0623C14.0985 11.0496 14.1208 11.0351 14.1452 11.0193C14.5049 10.7862 15.3137 10.2619 15.0145 10.9843C14.307 11.7581 13.5492 12.443 12.7872 13.1317C12.2737 13.5958 11.7583 14.0616 11.2552 14.5575C10.817 14.9135 10.3619 15.6295 10.8526 16.1281C11.9827 16.9193 13.1305 17.6912 14.2777 18.4628C14.651 18.7139 15.0242 18.9649 15.3968 19.2165C16.0281 19.7206 17.0148 19.3129 17.1537 18.5252C17.2154 18.1629 17.2774 17.8005 17.3393 17.4382C17.6818 15.4357 18.0244 13.4326 18.3271 11.4236C18.3682 11.1085 18.4149 10.7934 18.4615 10.4781C18.5746 9.71399 18.6878 8.94894 18.7232 8.18071C18.632 7.41407 17.7025 7.58263 17.1851 7.75502C14.5262 8.76679 11.8938 9.85356 9.2718 10.9595C8.97478 11.0911 8.67369 11.2225 8.37059 11.3549Z" fill="white"/>
</svg>
