<svg width="28" height="21" viewBox="0 0 28 21" fill="none" xmlns="http://www.w3.org/2000/svg">
<rect x="0.25" y="0.75" width="27.5" height="19.5" rx="1.75" fill="white" stroke="#F5F5F5" stroke-width="0.5"/>
<mask id="mask0_85_1096" style="mask-type:luminance" maskUnits="userSpaceOnUse" x="0" y="0" width="28" height="21">
<rect x="0.25" y="0.75" width="27.5" height="19.5" rx="1.75" fill="white" stroke="white" stroke-width="0.5"/>
</mask>
<g mask="url(#mask0_85_1096)">
<path fill-rule="evenodd" clip-rule="evenodd" d="M0 7.16667H28V0.5H0V7.16667Z" fill="#D9101C"/>
<path fill-rule="evenodd" clip-rule="evenodd" d="M0 20.5H28V13.8334H0V20.5Z" fill="#0F7811"/>
<path fill-rule="evenodd" clip-rule="evenodd" d="M13.333 9.16667C13.333 9.53486 13.0345 9.83333 12.6663 9.83333C12.2982 9.83333 11.9997 9.53486 11.9997 9.16667C11.9997 8.79848 12.2982 8.5 12.6663 8.5C13.0345 8.5 13.333 8.79848 13.333 9.16667ZM14.6663 10.5C14.6663 10.6206 14.6343 10.8767 14.5783 11.1667H15.333C15.7012 11.1667 15.9997 11.4651 15.9997 11.8333C15.9997 12.2015 15.7012 12.5 15.333 12.5H13.9997H12.6663C12.2982 12.5 11.9997 12.2015 11.9997 11.8333C11.9997 11.4651 12.2982 11.1667 12.6663 11.1667H13.421C13.365 10.8767 13.333 10.6206 13.333 10.5C13.333 10.1318 13.6315 9.83333 13.9997 9.83333C14.3679 9.83333 14.6663 10.1318 14.6663 10.5ZM15.9997 9.16667C15.9997 9.53486 15.7012 9.83333 15.333 9.83333C14.9648 9.83333 14.6663 9.53486 14.6663 9.16667C14.6663 8.79848 14.9648 8.5 15.333 8.5C15.7012 8.5 15.9997 8.79848 15.9997 9.16667ZM17.9997 11.1667C18.3679 11.1667 18.6663 10.8682 18.6663 10.5C18.6663 10.1318 18.3679 9.83333 17.9997 9.83333C17.6315 9.83333 17.333 10.1318 17.333 10.5C17.333 10.8682 17.6315 11.1667 17.9997 11.1667ZM10.6663 10.5C10.6663 10.8682 10.3679 11.1667 9.99967 11.1667C9.63148 11.1667 9.33301 10.8682 9.33301 10.5C9.33301 10.1318 9.63148 9.83333 9.99967 9.83333C10.3679 9.83333 10.6663 10.1318 10.6663 10.5Z" fill="#FAD14E"/>
</g>
</svg>
