<svg width="28" height="21" viewBox="0 0 28 21" fill="none" xmlns="http://www.w3.org/2000/svg">
<rect x="0.25" y="0.75" width="27.5" height="19.5" rx="1.75" fill="white" stroke="#F5F5F5" stroke-width="0.5"/>
<mask id="mask0_85_1148" style="mask-type:luminance" maskUnits="userSpaceOnUse" x="0" y="0" width="28" height="21">
<rect x="0.25" y="0.75" width="27.5" height="19.5" rx="1.75" fill="white" stroke="white" stroke-width="0.5"/>
</mask>
<g mask="url(#mask0_85_1148)">
<path fill-rule="evenodd" clip-rule="evenodd" d="M0 7.16667H28V0.5H0V7.16667Z" fill="#04AAC8"/>
<path fill-rule="evenodd" clip-rule="evenodd" d="M0 20.5H28V13.8334H0V20.5Z" fill="#23C840"/>
<path fill-rule="evenodd" clip-rule="evenodd" d="M4.66699 5.83337C5.07826 5.83337 5.46053 5.70924 5.77839 5.4964C5.74146 5.49884 5.70421 5.50008 5.66667 5.50008C4.74619 5.50008 4 4.75389 4 3.83341C4 2.91294 4.74619 2.16675 5.66667 2.16675C5.70425 2.16675 5.74155 2.16799 5.77852 2.17044C5.46064 1.95754 5.07832 1.83337 4.66699 1.83337C3.56242 1.83337 2.66699 2.7288 2.66699 3.83337C2.66699 4.93794 3.56242 5.83337 4.66699 5.83337ZM8.00033 5.16671C8.00033 5.5349 7.70185 5.83337 7.33366 5.83337C6.96547 5.83337 6.66699 5.5349 6.66699 5.16671C6.66699 4.79852 6.96547 4.50004 7.33366 4.50004C7.70185 4.50004 8.00033 4.79852 8.00033 5.16671ZM10.0007 3.16671C10.3688 3.16671 10.6673 2.86823 10.6673 2.50004C10.6673 2.13185 10.3688 1.83337 10.0007 1.83337C9.63246 1.83337 9.33398 2.13185 9.33398 2.50004C9.33398 2.86823 9.63246 3.16671 10.0007 3.16671ZM13.3333 2.50004C13.3333 2.86823 13.0349 3.16671 12.6667 3.16671C12.2985 3.16671 12 2.86823 12 2.50004C12 2.13185 12.2985 1.83337 12.6667 1.83337C13.0349 1.83337 13.3333 2.13185 13.3333 2.50004ZM12.6667 5.83333C13.0349 5.83333 13.3333 5.53486 13.3333 5.16667C13.3333 4.79848 13.0349 4.5 12.6667 4.5C12.2985 4.5 12 4.79848 12 5.16667C12 5.53486 12.2985 5.83333 12.6667 5.83333ZM10.6673 5.16667C10.6673 5.53486 10.3688 5.83333 10.0007 5.83333C9.63246 5.83333 9.33398 5.53486 9.33398 5.16667C9.33398 4.79848 9.63246 4.5 10.0007 4.5C10.3688 4.5 10.6673 4.79848 10.6673 5.16667Z" fill="white"/>
</g>
</svg>
